<svg width="34" height="40" viewBox="0 0 34 40" fill="none" xmlns="http://www.w3.org/2000/svg">
<g filter="url(#filter0_d)">
<rect x="24" y="27" width="1" height="1" fill="#272727"/>
<rect x="24" y="26" width="1" height="1" fill="#272727"/>
<rect x="25" y="25" width="1" height="1" fill="#272727"/>
<rect x="26" y="25" width="1" height="1" fill="#272727"/>
<rect x="27" y="25" width="1" height="1" fill="#272727"/>
<rect x="25" y="27" width="1" height="1" fill="#EAEAEA"/>
<rect x="25" y="26" width="1" height="1" fill="#EAEAEA"/>
<rect x="26" y="26" width="1" height="1" fill="#EAEAEA"/>
<rect x="26" y="27" width="1" height="1" fill="url(#paint0_linear)"/>
<rect x="27" y="27" width="1" height="1" fill="url(#paint1_linear)"/>
<rect x="27" y="28" width="1" height="1" fill="url(#paint2_linear)"/>
<rect x="26" y="28" width="1" height="1" fill="url(#paint3_linear)"/>
<rect x="25" y="28" width="1" height="1" fill="url(#paint4_linear)"/>
<rect x="24" y="28" width="1" height="1" fill="#EAEAEA"/>
<rect x="24" y="29" width="1" height="1" fill="url(#paint5_linear)"/>
<rect x="25" y="29" width="1" height="1" fill="url(#paint6_linear)"/>
<rect x="26" y="29" width="1" height="1" fill="url(#paint7_linear)"/>
<rect x="27" y="29" width="1" height="1" fill="url(#paint8_linear)"/>
<rect x="27" y="26" width="1" height="1" fill="#EAEAEA"/>
<rect x="28" y="26" width="1" height="1" fill="#272727"/>
<rect x="28" y="27" width="1" height="1" fill="#272727"/>
<rect x="28" y="28" width="1" height="1" fill="#272727"/>
<rect x="28" y="29" width="1" height="1" fill="#272727"/>
<rect x="26" y="30" width="1" height="1" fill="#272727"/>
<rect x="25" y="30" width="1" height="1" fill="#272727"/>
<rect x="24" y="30" width="1" height="1" fill="#272727"/>
<rect x="23" y="29" width="1" height="1" fill="#272727"/>
<rect x="23" y="28" width="1" height="1" fill="#272727"/>
</g>
<g filter="url(#filter1_d)">
<rect x="17" y="31" width="1" height="1" fill="url(#paint9_linear)" shape-rendering="crispEdges"/>
</g>
<g filter="url(#filter2_d)">
<rect x="18" y="31" width="1" height="1" fill="url(#paint10_linear)" shape-rendering="crispEdges"/>
</g>
<g filter="url(#filter3_d)">
<rect x="18" y="30" width="1" height="1" fill="url(#paint11_linear)" shape-rendering="crispEdges"/>
</g>
<g filter="url(#filter4_d)">
<rect x="17" y="30" width="1" height="1" fill="url(#paint12_linear)" shape-rendering="crispEdges"/>
</g>
<g filter="url(#filter5_d)">
<rect x="18" y="29" width="1" height="1" fill="url(#paint13_linear)" shape-rendering="crispEdges"/>
</g>
<g filter="url(#filter6_d)">
<rect x="28" y="30" width="1" height="1" fill="url(#paint14_linear)" shape-rendering="crispEdges"/>
</g>
<g filter="url(#filter7_d)">
<rect x="29" y="30" width="1" height="1" fill="url(#paint15_linear)" shape-rendering="crispEdges"/>
</g>
<g filter="url(#filter8_d)">
<rect x="27" y="30" width="1" height="1" fill="url(#paint16_linear)" shape-rendering="crispEdges"/>
</g>
<g filter="url(#filter9_d)">
<rect x="26" y="31" width="1" height="1" fill="url(#paint17_linear)" shape-rendering="crispEdges"/>
</g>
<g filter="url(#filter10_d)">
<rect x="27" y="31" width="1" height="1" fill="url(#paint18_linear)" shape-rendering="crispEdges"/>
</g>
<g filter="url(#filter11_d)">
<rect x="28" y="31" width="1" height="1" fill="url(#paint19_linear)" shape-rendering="crispEdges"/>
</g>
<g filter="url(#filter12_d)">
<rect x="15" y="31" width="1" height="1" fill="url(#paint20_linear)" shape-rendering="crispEdges"/>
</g>
<g filter="url(#filter13_d)">
<rect x="14" y="30" width="1" height="1" fill="url(#paint21_linear)" shape-rendering="crispEdges"/>
</g>
<g filter="url(#filter14_d)">
<rect x="13" y="30" width="1" height="1" fill="url(#paint22_linear)" shape-rendering="crispEdges"/>
</g>
<g filter="url(#filter15_d)">
<rect x="13" y="29" width="1" height="1" fill="url(#paint23_linear)" shape-rendering="crispEdges"/>
</g>
<g filter="url(#filter16_d)">
<rect x="14" y="31" width="1" height="1" fill="url(#paint24_linear)" shape-rendering="crispEdges"/>
</g>
<g filter="url(#filter17_d)">
<rect x="20" y="12" width="1" height="1" fill="#2B2B2B"/>
<rect x="20" y="13" width="1" height="1" fill="#2B2B2B"/>
<rect x="21" y="14" width="1" height="1" fill="#2B2B2B"/>
<rect x="20" y="14" width="1" height="1" fill="#2B2B2B"/>
<rect x="21" y="15" width="1" height="1" fill="#2B2B2B"/>
<rect x="21" y="17" width="1" height="1" fill="#EAEAEA"/>
<rect x="21" y="18" width="1" height="1" fill="#EAEAEA"/>
<rect x="20" y="18" width="1" height="1" fill="#EAEAEA"/>
<rect x="21" y="16" width="1" height="1" fill="#EAEAEA"/>
<rect x="21" y="15" width="1" height="1" fill="#EAEAEA"/>
<rect x="22" y="15" width="1" height="1" fill="#EAEAEA"/>
<rect x="23" y="15" width="1" height="1" fill="#EAEAEA"/>
<rect x="24" y="15" width="1" height="1" fill="#EAEAEA"/>
<rect x="25" y="16" width="1" height="1" fill="#EAEAEA"/>
<rect x="24" y="16" width="1" height="1" fill="#EAEAEA"/>
<rect x="26" y="17" width="1" height="1" fill="#EAEAEA"/>
<rect x="25" y="17" width="1" height="1" fill="#EAEAEA"/>
<rect x="27" y="18" width="1" height="1" fill="#EAEAEA"/>
<rect x="26" y="18" width="1" height="1" fill="#EAEAEA"/>
<rect x="28" y="19" width="1" height="1" fill="#EAEAEA"/>
<rect x="27" y="19" width="1" height="1" fill="#EAEAEA"/>
<rect x="22" y="16" width="1" height="1" fill="#EAEAEA"/>
<rect x="22" y="17" width="1" height="1" fill="#EAEAEA"/>
<rect x="18" y="26" width="1" height="1" fill="#EAEAEA"/>
<rect x="18" y="27" width="1" height="1" fill="#EAEAEA"/>
<rect x="11" y="16" width="1" height="1" fill="#EAEAEA"/>
<rect x="9" y="18" width="1" height="1" fill="#EAEAEA"/>
<rect x="15" y="16" width="1" height="1" fill="#EAEAEA"/>
<rect x="15" y="17" width="1" height="1" fill="#EAEAEA"/>
<rect x="14" y="17" width="1" height="1" fill="#EAEAEA"/>
<rect x="14" y="16" width="1" height="1" fill="#EAEAEA"/>
<rect x="14" y="15" width="1" height="1" fill="#EAEAEA"/>
<rect x="13" y="15" width="1" height="1" fill="#EAEAEA"/>
<rect x="13" y="16" width="1" height="1" fill="#EAEAEA"/>
<rect x="12" y="16" width="1" height="1" fill="#EAEAEA"/>
<rect x="12" y="15" width="1" height="1" fill="#EAEAEA"/>
<rect x="11" y="15" width="1" height="1" fill="#EAEAEA"/>
<rect x="11" y="16" width="1" height="1" fill="#EAEAEA"/>
<rect x="10" y="16" width="1" height="1" fill="#EAEAEA"/>
<rect x="10" y="17" width="1" height="1" fill="#EAEAEA"/>
<rect x="9" y="17" width="1" height="1" fill="#EAEAEA"/>
<rect x="9" y="18" width="1" height="1" fill="#EAEAEA"/>
<rect x="8" y="18" width="1" height="1" fill="#EAEAEA"/>
<rect x="8" y="19" width="1" height="1" fill="#EAEAEA"/>
<rect x="7" y="19" width="1" height="1" fill="#EAEAEA"/>
<rect x="7" y="20" width="1" height="1" fill="#EAEAEA"/>
<rect x="6" y="20" width="1" height="1" fill="#EAEAEA"/>
<rect x="6" y="21" width="1" height="1" fill="#EAEAEA"/>
<rect x="5" y="21" width="1" height="1" fill="#EAEAEA"/>
<rect x="5" y="22" width="1" height="1" fill="#EAEAEA"/>
<rect x="22" y="14" width="1" height="1" fill="#2B2B2B"/>
<rect x="23" y="14" width="1" height="1" fill="#2B2B2B"/>
<rect x="24" y="14" width="1" height="1" fill="#2B2B2B"/>
<rect x="25" y="15" width="1" height="1" fill="#2B2B2B"/>
<rect x="26" y="16" width="1" height="1" fill="#2B2B2B"/>
<rect x="27" y="17" width="1" height="1" fill="#2B2B2B"/>
<rect x="28" y="18" width="1" height="1" fill="#2B2B2B"/>
<rect x="29" y="19" width="1" height="1" fill="#2B2B2B"/>
<rect x="29" y="20" width="1" height="1" fill="#2B2B2B"/>
<rect x="29" y="21" width="1" height="1" fill="#2B2B2B"/>
<rect x="28" y="22" width="1" height="1" fill="#2B2B2B"/>
<rect x="27" y="23" width="1" height="1" fill="#2B2B2B"/>
<rect x="29" y="24" width="1" height="1" fill="#2B2B2B"/>
<rect x="28" y="24" width="1" height="1" fill="#2B2B2B"/>
<rect x="26" y="23" width="1" height="1" fill="#2B2B2B"/>
<rect x="25" y="22" width="1" height="1" fill="#2B2B2B"/>
<rect x="24" y="21" width="1" height="1" fill="#2B2B2B"/>
<rect x="23" y="20" width="1" height="1" fill="#2B2B2B"/>
<rect x="22" y="19" width="1" height="1" fill="#2B2B2B"/>
<rect x="21" y="18" width="1" height="1" fill="#2B2B2B"/>
<rect x="20" y="19" width="1" height="1" fill="#BBBBBB"/>
<rect x="22" y="18" width="1" height="1" fill="#BBBBBB"/>
<rect x="23" y="17" width="1" height="1" fill="#BBBBBB"/>
<rect x="22" y="17" width="1" height="1" fill="#BBBBBB"/>
<rect x="27" y="21" width="1" height="1" fill="#BBBBBB"/>
<rect x="27" y="22" width="1" height="1" fill="#BBBBBB"/>
<rect x="26" y="21" width="1" height="1" fill="#BBBBBB"/>
<rect x="25" y="20" width="1" height="1" fill="#BBBBBB"/>
<rect x="24" y="19" width="1" height="1" fill="#BBBBBB"/>
<rect x="23" y="18" width="1" height="1" fill="#BBBBBB"/>
<rect x="24" y="18" width="1" height="1" fill="#BBBBBB"/>
<rect x="25" y="19" width="1" height="1" fill="#BBBBBB"/>
<rect x="26" y="20" width="1" height="1" fill="#BBBBBB"/>
<rect x="23" y="19" width="1" height="1" fill="#BBBBBB"/>
<rect x="24" y="20" width="1" height="1" fill="#BBBBBB"/>
<rect x="25" y="21" width="1" height="1" fill="#BBBBBB"/>
<rect x="26" y="22" width="1" height="1" fill="#BBBBBB"/>
<rect x="20" y="20" width="1" height="1" fill="#2B2B2B"/>
<rect x="20" y="21" width="1" height="1" fill="#2B2B2B"/>
<rect x="20" y="22" width="1" height="1" fill="#2B2B2B"/>
<rect x="20" y="23" width="1" height="1" fill="#2B2B2B"/>
<rect x="20" y="24" width="1" height="1" fill="#2B2B2B"/>
<rect x="20" y="25" width="1" height="1" fill="#2B2B2B"/>
<rect x="21" y="26" width="1" height="1" fill="#2B2B2B"/>
<rect x="22" y="27" width="1" height="1" fill="#2B2B2B"/>
<rect x="22" y="28" width="1" height="1" fill="#2B2B2B"/>
<rect x="22" y="29" width="1" height="1" fill="#2B2B2B"/>
<rect x="21" y="30" width="1" height="1" fill="#2B2B2B"/>
<rect x="20" y="31" width="1" height="1" fill="#2B2B2B"/>
<rect x="19" y="31" width="1" height="1" fill="#2B2B2B"/>
<rect x="16" y="31" width="1" height="1" fill="#2B2B2B"/>
<rect x="15" y="30" width="1" height="1" fill="#2B2B2B"/>
<rect x="14" y="29" width="1" height="1" fill="#2B2B2B"/>
<rect x="14" y="28" width="1" height="1" fill="#2B2B2B"/>
<rect x="14" y="27" width="1" height="1" fill="#2B2B2B"/>
<rect x="15" y="26" width="1" height="1" fill="#2B2B2B"/>
<rect x="16" y="25" width="1" height="1" fill="#2B2B2B"/>
<rect x="16" y="24" width="1" height="1" fill="#2B2B2B"/>
<rect x="16" y="23" width="1" height="1" fill="#2B2B2B"/>
<rect x="16" y="22" width="1" height="1" fill="#2B2B2B"/>
<rect x="16" y="21" width="1" height="1" fill="#2B2B2B"/>
<rect x="16" y="20" width="1" height="1" fill="#2B2B2B"/>
<rect x="16" y="19" width="1" height="1" fill="#2B2B2B"/>
<rect x="15" y="18" width="1" height="1" fill="#2B2B2B"/>
<rect x="14" y="18" width="1" height="1" fill="#2B2B2B"/>
<rect x="13" y="17" width="1" height="1" fill="#D5D7D4"/>
<rect x="17" y="12" width="1" height="1" fill="#BBBBBB"/>
<rect x="16" y="11" width="1" height="1" fill="#BBBBBB"/>
<rect x="16" y="10" width="1" height="1" fill="#BBBBBB"/>
<rect x="16" y="9" width="1" height="1" fill="#BBBBBB"/>
<rect x="16" y="8" width="1" height="1" fill="#BBBBBB"/>
<rect x="16" y="7" width="1" height="1" fill="#BBBBBB"/>
<rect x="16" y="6" width="1" height="1" fill="#BBBBBB"/>
<rect x="16" y="5" width="1" height="1" fill="#BBBBBB"/>
<rect x="16" y="4" width="1" height="1" fill="#BBBBBB"/>
<rect x="16" y="3" width="1" height="1" fill="#BBBBBB"/>
<rect x="17" y="2" width="1" height="1" fill="#BBBBBB"/>
<rect x="17" y="13" width="1" height="1" fill="#EAEAEA"/>
<rect x="18" y="13" width="1" height="1" fill="#EAEAEA"/>
<rect x="19" y="13" width="1" height="1" fill="#EAEAEA"/>
<rect x="19" y="12" width="1" height="1" fill="#EAEAEA"/>
<rect x="19" y="11" width="1" height="1" fill="#EAEAEA"/>
<rect x="18" y="11" width="1" height="1" fill="#EAEAEA"/>
<rect x="18" y="10" width="1" height="1" fill="#EAEAEA"/>
<rect x="19" y="10" width="1" height="1" fill="#EAEAEA"/>
<rect x="19" y="9" width="1" height="1" fill="#EAEAEA"/>
<rect x="18" y="9" width="1" height="1" fill="#EAEAEA"/>
<rect x="18" y="8" width="1" height="1" fill="#EAEAEA"/>
<rect x="19" y="8" width="1" height="1" fill="#EAEAEA"/>
<rect x="19" y="7" width="1" height="1" fill="#EAEAEA"/>
<rect x="18" y="7" width="1" height="1" fill="#EAEAEA"/>
<rect x="18" y="6" width="1" height="1" fill="#EAEAEA"/>
<rect x="19" y="6" width="1" height="1" fill="#EAEAEA"/>
<rect x="19" y="5" width="1" height="1" fill="#EAEAEA"/>
<rect x="18" y="5" width="1" height="1" fill="#EAEAEA"/>
<rect x="18" y="4" width="1" height="1" fill="#EAEAEA"/>
<rect x="19" y="4" width="1" height="1" fill="#EAEAEA"/>
<rect x="19" y="3" width="1" height="1" fill="#EAEAEA"/>
<rect x="19" y="2" width="1" height="1" fill="#EAEAEA"/>
<rect x="18" y="1" width="1" height="1" fill="#EAEAEA"/>
<rect x="18" y="3" width="1" height="1" fill="#EAEAEA"/>
<rect x="18" y="12" width="1" height="1" fill="#D5D7D4"/>
<rect x="17" y="11" width="1" height="1" fill="#D5D7D4"/>
<rect x="17" y="10" width="1" height="1" fill="#D5D7D4"/>
<rect x="17" y="9" width="1" height="1" fill="#D5D7D4"/>
<rect x="17" y="8" width="1" height="1" fill="#D5D7D4"/>
<rect x="17" y="7" width="1" height="1" fill="#D5D7D4"/>
<rect x="17" y="6" width="1" height="1" fill="#D5D7D4"/>
<rect x="17" y="5" width="1" height="1" fill="#D5D7D4"/>
<rect x="17" y="4" width="1" height="1" fill="#D5D7D4"/>
<rect x="17" y="3" width="1" height="1" fill="#D5D7D4"/>
<rect x="18" y="2" width="1" height="1" fill="#D5D7D4"/>
<rect x="23" y="16" width="1" height="1" fill="#D5D7D4"/>
<rect x="22" y="16" width="1" height="1" fill="#D5D7D4"/>
<rect x="24" y="17" width="1" height="1" fill="#D5D7D4"/>
<rect x="25" y="18" width="1" height="1" fill="#D5D7D4"/>
<rect x="26" y="19" width="1" height="1" fill="#D5D7D4"/>
<rect width="1" height="1" transform="matrix(-1 0 0 1 28 20)" fill="#D5D7D4"/>
<rect width="1" height="1" transform="matrix(-1 0 0 1 29 20)" fill="#D5D7D4"/>
<rect width="1" height="1" transform="matrix(-1 0 0 1 29 21)" fill="#D5D7D4"/>
<rect x="12" y="17" width="1" height="1" fill="#D5D7D4"/>
<rect x="11" y="17" width="1" height="1" fill="#D5D7D4"/>
<rect x="10" y="18" width="1" height="1" fill="#D5D7D4"/>
<rect x="9" y="19" width="1" height="1" fill="#D5D7D4"/>
<rect x="8" y="21" width="1" height="1" fill="#D5D7D4"/>
<rect x="8" y="20" width="1" height="1" fill="#D5D7D4"/>
<rect x="7" y="21" width="1" height="1" fill="#D5D7D4"/>
<rect x="6" y="22" width="1" height="1" fill="#D5D7D4"/>
<rect x="6" y="23" width="1" height="1" fill="#D5D7D4"/>
<rect x="7" y="23" width="1" height="1" fill="#BBBBBB"/>
<rect x="8" y="23" width="1" height="1" fill="#BBBBBB"/>
<rect x="8" y="22" width="1" height="1" fill="#BBBBBB"/>
<rect x="9" y="22" width="1" height="1" fill="#BBBBBB"/>
<rect x="9" y="20" width="1" height="1" fill="#D5D7D4"/>
<rect x="9" y="21" width="1" height="1" fill="#BBBBBB"/>
<rect x="10" y="21" width="1" height="1" fill="#BBBBBB"/>
<rect x="10" y="20" width="1" height="1" fill="#BBBBBB"/>
<rect x="10" y="19" width="1" height="1" fill="#D5D7D4"/>
<rect x="11" y="19" width="1" height="1" fill="#BBBBBB"/>
<rect x="11" y="20" width="1" height="1" fill="#BBBBBB"/>
<rect x="11" y="18" width="1" height="1" fill="#D5D7D4"/>
<rect x="12" y="18" width="1" height="1" fill="url(#paint25_linear)"/>
<rect x="12" y="18" width="1" height="1" fill="#BBBBBB"/>
<rect x="12" y="19" width="1" height="1" fill="#BBBBBB"/>
<rect x="13" y="18" width="1" height="1" fill="#BBBBBB"/>
<rect x="18" y="20" width="1" height="1" fill="#EAEAEA"/>
<rect x="17" y="19" width="1" height="1" fill="#EAEAEA"/>
<rect x="18" y="19" width="1" height="1" fill="#EAEAEA"/>
<rect x="19" y="19" width="1" height="1" fill="#EAEAEA"/>
<rect x="18" y="21" width="1" height="1" fill="#EAEAEA"/>
<rect x="18" y="22" width="1" height="1" fill="#EAEAEA"/>
<rect x="18" y="23" width="1" height="1" fill="#EAEAEA"/>
<rect x="18" y="24" width="1" height="1" fill="#EAEAEA"/>
<rect x="18" y="25" width="1" height="1" fill="#EAEAEA"/>
<rect x="18" y="26" width="1" height="1" fill="#EAEAEA"/>
<rect x="17" y="26" width="1" height="1" fill="#EAEAEA"/>
<rect x="17" y="27" width="1" height="1" fill="#EAEAEA"/>
<rect x="16" y="27" width="1" height="1" fill="#EAEAEA"/>
<rect x="16" y="28" width="1" height="1" fill="#EAEAEA"/>
<rect x="17" y="28" width="1" height="1" fill="#EAEAEA"/>
<rect x="17" y="29" width="1" height="1" fill="#EAEAEA"/>
<rect x="16" y="29" width="1" height="1" fill="#EAEAEA"/>
<rect x="18" y="28" width="1" height="1" fill="#EAEAEA"/>
<rect x="19" y="28" width="1" height="1" fill="#EAEAEA"/>
<rect x="19" y="29" width="1" height="1" fill="#EAEAEA"/>
<rect x="20" y="29" width="1" height="1" fill="#EAEAEA"/>
<rect x="20" y="28" width="1" height="1" fill="#EAEAEA"/>
<rect x="20" y="27" width="1" height="1" fill="#EAEAEA"/>
<rect x="19" y="27" width="1" height="1" fill="#EAEAEA"/>
<rect x="19" y="26" width="1" height="1" fill="#EAEAEA"/>
<rect x="19" y="30" width="1" height="1" fill="#EAEAEA"/>
<rect x="17" y="20" width="1" height="1" fill="#BBBBBB"/>
<rect x="19" y="20" width="1" height="1" fill="#BBBBBB"/>
<rect x="19" y="21" width="1" height="1" fill="#BBBBBB"/>
<rect x="19" y="22" width="1" height="1" fill="#BBBBBB"/>
<rect x="19" y="23" width="1" height="1" fill="#BBBBBB"/>
<rect x="19" y="24" width="1" height="1" fill="#BBBBBB"/>
<rect x="19" y="25" width="1" height="1" fill="#BBBBBB"/>
<rect x="20" y="26" width="1" height="1" fill="#BBBBBB"/>
<rect x="21" y="27" width="1" height="1" fill="#BBBBBB"/>
<rect x="21" y="28" width="1" height="1" fill="#BBBBBB"/>
<rect x="21" y="29" width="1" height="1" fill="#BBBBBB"/>
<rect x="20" y="30" width="1" height="1" fill="#BBBBBB"/>
<rect x="16" y="30" width="1" height="1" fill="#BBBBBB"/>
<rect x="15" y="29" width="1" height="1" fill="#BBBBBB"/>
<rect x="15" y="28" width="1" height="1" fill="#BBBBBB"/>
<rect x="15" y="27" width="1" height="1" fill="#BBBBBB"/>
<rect x="16" y="26" width="1" height="1" fill="#BBBBBB"/>
<rect x="17" y="25" width="1" height="1" fill="#BBBBBB"/>
<rect x="17" y="24" width="1" height="1" fill="#BBBBBB"/>
<rect x="17" y="23" width="1" height="1" fill="#BBBBBB"/>
<rect x="17" y="22" width="1" height="1" fill="#BBBBBB"/>
<rect x="17" y="21" width="1" height="1" fill="#BBBBBB"/>
<rect x="7" y="22" width="1" height="1" fill="#D5D7D4"/>
<rect x="13" y="19" width="1" height="1" fill="#2B2B2B"/>
<rect x="12" y="20" width="1" height="1" fill="#2B2B2B"/>
<rect x="11" y="21" width="1" height="1" fill="#2B2B2B"/>
<rect x="10" y="22" width="1" height="1" fill="#2B2B2B"/>
<rect x="9" y="23" width="1" height="1" fill="#2B2B2B"/>
<rect x="8" y="24" width="1" height="1" fill="#2B2B2B"/>
<rect x="7" y="24" width="1" height="1" fill="#2B2B2B"/>
<rect x="6" y="24" width="1" height="1" fill="#2B2B2B"/>
<rect x="5" y="23" width="1" height="1" fill="#2B2B2B"/>
<rect x="4" y="22" width="1" height="1" fill="#2B2B2B"/>
<rect x="4" y="21" width="1" height="1" fill="#2B2B2B"/>
<rect x="5" y="20" width="1" height="1" fill="#2B2B2B"/>
<rect x="6" y="19" width="1" height="1" fill="#2B2B2B"/>
<rect x="7" y="18" width="1" height="1" fill="#2B2B2B"/>
<rect x="8" y="17" width="1" height="1" fill="#2B2B2B"/>
<rect x="9" y="16" width="1" height="1" fill="#2B2B2B"/>
<rect width="1" height="1" transform="matrix(1 0 0 -1 10 16)" fill="#2B2B2B"/>
<rect width="1" height="1" transform="matrix(1 0 0 -1 11 15)" fill="#2B2B2B"/>
<rect width="1" height="1" transform="matrix(1 0 0 -1 12 15)" fill="#2B2B2B"/>
<rect width="1" height="1" transform="matrix(1 0 0 -1 13 15)" fill="#2B2B2B"/>
<rect width="1" height="1" transform="matrix(1 0 0 -1 14 15)" fill="#2B2B2B"/>
<rect width="1" height="1" transform="matrix(1 0 0 -1 15 16)" fill="#2B2B2B"/>
<rect width="1" height="1" transform="matrix(1 0 0 -1 16 14)" fill="#2B2B2B"/>
<rect width="1" height="1" transform="matrix(1 0 0 -1 16 15)" fill="#2B2B2B"/>
<rect width="1" height="1" transform="matrix(1 0 0 -1 17 15)" fill="#CFCFCF"/>
<rect width="1" height="1" transform="matrix(1 0 0 -1 18 15)" fill="#CFCFCF"/>
<rect width="1" height="1" transform="matrix(1 0 0 -1 18 16)" fill="#CFCFCF"/>
<rect width="1" height="1" transform="matrix(1 0 0 -1 17 16)" fill="#CFCFCF"/>
<rect width="1" height="1" transform="matrix(1 0 0 -1 17 17)" fill="#CFCFCF"/>
<rect width="1" height="1" transform="matrix(1 0 0 -1 18 17)" fill="#CFCFCF"/>
<rect width="1" height="1" transform="matrix(1 0 0 -1 19 17)" fill="#CFCFCF"/>
<rect width="1" height="1" transform="matrix(1 0 0 -1 19 18)" fill="#CFCFCF"/>
<rect width="1" height="1" transform="matrix(1 0 0 -1 18 18)" fill="#CFCFCF"/>
<rect width="1" height="1" transform="matrix(1 0 0 -1 18 19)" fill="#CFCFCF"/>
<rect width="1" height="1" transform="matrix(1 0 0 -1 17 18)" fill="#CFCFCF"/>
<rect width="1" height="1" transform="matrix(1 0 0 -1 19 16)" fill="#CFCFCF"/>
<rect width="1" height="1" transform="matrix(1 0 0 -1 20 17)" fill="#CFCFCF"/>
<rect width="1" height="1" transform="matrix(1 0 0 -1 16 17)" fill="#CFCFCF"/>
<rect width="1" height="1" transform="matrix(1 0 0 -1 19 15)" fill="#CFCFCF"/>
<rect width="1" height="1" transform="matrix(1 0 0 -1 20 16)" fill="#CFCFCF"/>
<rect width="1" height="1" transform="matrix(1 0 0 -1 20 18)" fill="#CFCFCF"/>
<rect width="1" height="1" transform="matrix(1 0 0 -1 19 19)" fill="#CFCFCF"/>
<rect width="1" height="1" transform="matrix(1 0 0 -1 17 19)" fill="#CFCFCF"/>
<rect width="1" height="1" transform="matrix(1 0 0 -1 16 18)" fill="#CFCFCF"/>
<rect width="1" height="1" transform="matrix(1 0 0 -1 16 16)" fill="#CFCFCF"/>
<rect x="20" y="11" width="1" height="1" fill="#2B2B2B"/>
<rect x="20" y="10" width="1" height="1" fill="#2B2B2B"/>
<rect x="20" y="9" width="1" height="1" fill="#2B2B2B"/>
<rect x="20" y="8" width="1" height="1" fill="#2B2B2B"/>
<rect x="20" y="7" width="1" height="1" fill="#2B2B2B"/>
<rect x="20" y="6" width="1" height="1" fill="#2B2B2B"/>
<rect x="20" y="5" width="1" height="1" fill="#2B2B2B"/>
<rect x="20" y="4" width="1" height="1" fill="#2B2B2B"/>
<rect x="20" y="3" width="1" height="1" fill="#2B2B2B"/>
<rect x="20" y="2" width="1" height="1" fill="#2B2B2B"/>
<rect x="19" y="1" width="1" height="1" fill="#2B2B2B"/>
<rect x="18" width="1" height="1" fill="#2B2B2B"/>
<rect x="17" y="1" width="1" height="1" fill="#2B2B2B"/>
<rect x="16" y="2" width="1" height="1" fill="#2B2B2B"/>
<rect x="15" y="3" width="1" height="1" fill="#2B2B2B"/>
<rect x="15" y="5" width="1" height="1" fill="#2B2B2B"/>
<rect x="15" y="6" width="1" height="1" fill="#2B2B2B"/>
<rect x="15" y="8" width="1" height="1" fill="#2B2B2B"/>
<rect x="15" y="9" width="1" height="1" fill="#2B2B2B"/>
<rect x="15" y="10" width="1" height="1" fill="#2B2B2B"/>
<rect x="15" y="11" width="1" height="1" fill="#2B2B2B"/>
<rect x="16" y="12" width="1" height="1" fill="#2B2B2B"/>
<rect x="15" y="7" width="1" height="1" fill="#2B2B2B"/>
<rect x="15" y="4" width="1" height="1" fill="#2B2B2B"/>
</g>
<defs>
<filter id="filter0_d" x="19" y="20.68" width="14" height="14" filterUnits="userSpaceOnUse" color-interpolation-filters="sRGB">
<feFlood flood-opacity="0" result="BackgroundImageFix"/>
<feColorMatrix in="SourceAlpha" type="matrix" values="0 0 0 0 0 0 0 0 0 0 0 0 0 0 0 0 0 0 127 0" result="hardAlpha"/>
<feOffset dy="-0.32"/>
<feGaussianBlur stdDeviation="2"/>
<feComposite in2="hardAlpha" operator="out"/>
<feColorMatrix type="matrix" values="0 0 0 0 0 0 0 0 0 0 0 0 0 0 0 0 0 0 0.25 0"/>
<feBlend mode="normal" in2="BackgroundImageFix" result="effect1_dropShadow"/>
<feBlend mode="normal" in="SourceGraphic" in2="effect1_dropShadow" result="shape"/>
</filter>
<filter id="filter1_d" x="13" y="26.68" width="9" height="9" filterUnits="userSpaceOnUse" color-interpolation-filters="sRGB">
<feFlood flood-opacity="0" result="BackgroundImageFix"/>
<feColorMatrix in="SourceAlpha" type="matrix" values="0 0 0 0 0 0 0 0 0 0 0 0 0 0 0 0 0 0 127 0" result="hardAlpha"/>
<feOffset dy="-0.32"/>
<feGaussianBlur stdDeviation="2"/>
<feComposite in2="hardAlpha" operator="out"/>
<feColorMatrix type="matrix" values="0 0 0 0 0.219608 0 0 0 0 0.560784 0 0 0 0 0.0705882 0 0 0 1 0"/>
<feBlend mode="normal" in2="BackgroundImageFix" result="effect1_dropShadow"/>
<feBlend mode="normal" in="SourceGraphic" in2="effect1_dropShadow" result="shape"/>
</filter>
<filter id="filter2_d" x="14" y="26.68" width="9" height="9" filterUnits="userSpaceOnUse" color-interpolation-filters="sRGB">
<feFlood flood-opacity="0" result="BackgroundImageFix"/>
<feColorMatrix in="SourceAlpha" type="matrix" values="0 0 0 0 0 0 0 0 0 0 0 0 0 0 0 0 0 0 127 0" result="hardAlpha"/>
<feOffset dy="-0.32"/>
<feGaussianBlur stdDeviation="2"/>
<feComposite in2="hardAlpha" operator="out"/>
<feColorMatrix type="matrix" values="0 0 0 0 0.219608 0 0 0 0 0.560784 0 0 0 0 0.0705882 0 0 0 1 0"/>
<feBlend mode="normal" in2="BackgroundImageFix" result="effect1_dropShadow"/>
<feBlend mode="normal" in="SourceGraphic" in2="effect1_dropShadow" result="shape"/>
</filter>
<filter id="filter3_d" x="14" y="25.68" width="9" height="9" filterUnits="userSpaceOnUse" color-interpolation-filters="sRGB">
<feFlood flood-opacity="0" result="BackgroundImageFix"/>
<feColorMatrix in="SourceAlpha" type="matrix" values="0 0 0 0 0 0 0 0 0 0 0 0 0 0 0 0 0 0 127 0" result="hardAlpha"/>
<feOffset dy="-0.32"/>
<feGaussianBlur stdDeviation="2"/>
<feComposite in2="hardAlpha" operator="out"/>
<feColorMatrix type="matrix" values="0 0 0 0 0.219608 0 0 0 0 0.560784 0 0 0 0 0.0705882 0 0 0 1 0"/>
<feBlend mode="normal" in2="BackgroundImageFix" result="effect1_dropShadow"/>
<feBlend mode="normal" in="SourceGraphic" in2="effect1_dropShadow" result="shape"/>
</filter>
<filter id="filter4_d" x="13" y="25.68" width="9" height="9" filterUnits="userSpaceOnUse" color-interpolation-filters="sRGB">
<feFlood flood-opacity="0" result="BackgroundImageFix"/>
<feColorMatrix in="SourceAlpha" type="matrix" values="0 0 0 0 0 0 0 0 0 0 0 0 0 0 0 0 0 0 127 0" result="hardAlpha"/>
<feOffset dy="-0.32"/>
<feGaussianBlur stdDeviation="2"/>
<feComposite in2="hardAlpha" operator="out"/>
<feColorMatrix type="matrix" values="0 0 0 0 0.219608 0 0 0 0 0.560784 0 0 0 0 0.0705882 0 0 0 1 0"/>
<feBlend mode="normal" in2="BackgroundImageFix" result="effect1_dropShadow"/>
<feBlend mode="normal" in="SourceGraphic" in2="effect1_dropShadow" result="shape"/>
</filter>
<filter id="filter5_d" x="14" y="24.68" width="9" height="9" filterUnits="userSpaceOnUse" color-interpolation-filters="sRGB">
<feFlood flood-opacity="0" result="BackgroundImageFix"/>
<feColorMatrix in="SourceAlpha" type="matrix" values="0 0 0 0 0 0 0 0 0 0 0 0 0 0 0 0 0 0 127 0" result="hardAlpha"/>
<feOffset dy="-0.32"/>
<feGaussianBlur stdDeviation="2"/>
<feComposite in2="hardAlpha" operator="out"/>
<feColorMatrix type="matrix" values="0 0 0 0 0.219608 0 0 0 0 0.560784 0 0 0 0 0.0705882 0 0 0 1 0"/>
<feBlend mode="normal" in2="BackgroundImageFix" result="effect1_dropShadow"/>
<feBlend mode="normal" in="SourceGraphic" in2="effect1_dropShadow" result="shape"/>
</filter>
<filter id="filter6_d" x="24" y="25.68" width="9" height="9" filterUnits="userSpaceOnUse" color-interpolation-filters="sRGB">
<feFlood flood-opacity="0" result="BackgroundImageFix"/>
<feColorMatrix in="SourceAlpha" type="matrix" values="0 0 0 0 0 0 0 0 0 0 0 0 0 0 0 0 0 0 127 0" result="hardAlpha"/>
<feOffset dy="-0.32"/>
<feGaussianBlur stdDeviation="2"/>
<feComposite in2="hardAlpha" operator="out"/>
<feColorMatrix type="matrix" values="0 0 0 0 0.282353 0 0 0 0 0.623529 0 0 0 0 0.137255 0 0 0 1 0"/>
<feBlend mode="normal" in2="BackgroundImageFix" result="effect1_dropShadow"/>
<feBlend mode="normal" in="SourceGraphic" in2="effect1_dropShadow" result="shape"/>
</filter>
<filter id="filter7_d" x="25" y="25.68" width="9" height="9" filterUnits="userSpaceOnUse" color-interpolation-filters="sRGB">
<feFlood flood-opacity="0" result="BackgroundImageFix"/>
<feColorMatrix in="SourceAlpha" type="matrix" values="0 0 0 0 0 0 0 0 0 0 0 0 0 0 0 0 0 0 127 0" result="hardAlpha"/>
<feOffset dy="-0.32"/>
<feGaussianBlur stdDeviation="2"/>
<feComposite in2="hardAlpha" operator="out"/>
<feColorMatrix type="matrix" values="0 0 0 0 0.282353 0 0 0 0 0.623529 0 0 0 0 0.137255 0 0 0 1 0"/>
<feBlend mode="normal" in2="BackgroundImageFix" result="effect1_dropShadow"/>
<feBlend mode="normal" in="SourceGraphic" in2="effect1_dropShadow" result="shape"/>
</filter>
<filter id="filter8_d" x="23" y="25.68" width="9" height="9" filterUnits="userSpaceOnUse" color-interpolation-filters="sRGB">
<feFlood flood-opacity="0" result="BackgroundImageFix"/>
<feColorMatrix in="SourceAlpha" type="matrix" values="0 0 0 0 0 0 0 0 0 0 0 0 0 0 0 0 0 0 127 0" result="hardAlpha"/>
<feOffset dy="-0.32"/>
<feGaussianBlur stdDeviation="2"/>
<feComposite in2="hardAlpha" operator="out"/>
<feColorMatrix type="matrix" values="0 0 0 0 0.282353 0 0 0 0 0.623529 0 0 0 0 0.137255 0 0 0 1 0"/>
<feBlend mode="normal" in2="BackgroundImageFix" result="effect1_dropShadow"/>
<feBlend mode="normal" in="SourceGraphic" in2="effect1_dropShadow" result="shape"/>
</filter>
<filter id="filter9_d" x="22" y="26.68" width="9" height="9" filterUnits="userSpaceOnUse" color-interpolation-filters="sRGB">
<feFlood flood-opacity="0" result="BackgroundImageFix"/>
<feColorMatrix in="SourceAlpha" type="matrix" values="0 0 0 0 0 0 0 0 0 0 0 0 0 0 0 0 0 0 127 0" result="hardAlpha"/>
<feOffset dy="-0.32"/>
<feGaussianBlur stdDeviation="2"/>
<feComposite in2="hardAlpha" operator="out"/>
<feColorMatrix type="matrix" values="0 0 0 0 0.282353 0 0 0 0 0.623529 0 0 0 0 0.137255 0 0 0 1 0"/>
<feBlend mode="normal" in2="BackgroundImageFix" result="effect1_dropShadow"/>
<feBlend mode="normal" in="SourceGraphic" in2="effect1_dropShadow" result="shape"/>
</filter>
<filter id="filter10_d" x="23" y="26.68" width="9" height="9" filterUnits="userSpaceOnUse" color-interpolation-filters="sRGB">
<feFlood flood-opacity="0" result="BackgroundImageFix"/>
<feColorMatrix in="SourceAlpha" type="matrix" values="0 0 0 0 0 0 0 0 0 0 0 0 0 0 0 0 0 0 127 0" result="hardAlpha"/>
<feOffset dy="-0.32"/>
<feGaussianBlur stdDeviation="2"/>
<feComposite in2="hardAlpha" operator="out"/>
<feColorMatrix type="matrix" values="0 0 0 0 0.282353 0 0 0 0 0.623529 0 0 0 0 0.137255 0 0 0 1 0"/>
<feBlend mode="normal" in2="BackgroundImageFix" result="effect1_dropShadow"/>
<feBlend mode="normal" in="SourceGraphic" in2="effect1_dropShadow" result="shape"/>
</filter>
<filter id="filter11_d" x="24" y="26.68" width="9" height="9" filterUnits="userSpaceOnUse" color-interpolation-filters="sRGB">
<feFlood flood-opacity="0" result="BackgroundImageFix"/>
<feColorMatrix in="SourceAlpha" type="matrix" values="0 0 0 0 0 0 0 0 0 0 0 0 0 0 0 0 0 0 127 0" result="hardAlpha"/>
<feOffset dy="-0.32"/>
<feGaussianBlur stdDeviation="2"/>
<feComposite in2="hardAlpha" operator="out"/>
<feColorMatrix type="matrix" values="0 0 0 0 0.282353 0 0 0 0 0.623529 0 0 0 0 0.137255 0 0 0 1 0"/>
<feBlend mode="normal" in2="BackgroundImageFix" result="effect1_dropShadow"/>
<feBlend mode="normal" in="SourceGraphic" in2="effect1_dropShadow" result="shape"/>
</filter>
<filter id="filter12_d" x="11" y="26.68" width="9" height="9" filterUnits="userSpaceOnUse" color-interpolation-filters="sRGB">
<feFlood flood-opacity="0" result="BackgroundImageFix"/>
<feColorMatrix in="SourceAlpha" type="matrix" values="0 0 0 0 0 0 0 0 0 0 0 0 0 0 0 0 0 0 127 0" result="hardAlpha"/>
<feOffset dy="-0.32"/>
<feGaussianBlur stdDeviation="2"/>
<feComposite in2="hardAlpha" operator="out"/>
<feColorMatrix type="matrix" values="0 0 0 0 0.278431 0 0 0 0 0.619608 0 0 0 0 0.129412 0 0 0 1 0"/>
<feBlend mode="normal" in2="BackgroundImageFix" result="effect1_dropShadow"/>
<feBlend mode="normal" in="SourceGraphic" in2="effect1_dropShadow" result="shape"/>
</filter>
<filter id="filter13_d" x="10" y="25.68" width="9" height="9" filterUnits="userSpaceOnUse" color-interpolation-filters="sRGB">
<feFlood flood-opacity="0" result="BackgroundImageFix"/>
<feColorMatrix in="SourceAlpha" type="matrix" values="0 0 0 0 0 0 0 0 0 0 0 0 0 0 0 0 0 0 127 0" result="hardAlpha"/>
<feOffset dy="-0.32"/>
<feGaussianBlur stdDeviation="2"/>
<feComposite in2="hardAlpha" operator="out"/>
<feColorMatrix type="matrix" values="0 0 0 0 0.278431 0 0 0 0 0.619608 0 0 0 0 0.129412 0 0 0 1 0"/>
<feBlend mode="normal" in2="BackgroundImageFix" result="effect1_dropShadow"/>
<feBlend mode="normal" in="SourceGraphic" in2="effect1_dropShadow" result="shape"/>
</filter>
<filter id="filter14_d" x="9" y="25.68" width="9" height="9" filterUnits="userSpaceOnUse" color-interpolation-filters="sRGB">
<feFlood flood-opacity="0" result="BackgroundImageFix"/>
<feColorMatrix in="SourceAlpha" type="matrix" values="0 0 0 0 0 0 0 0 0 0 0 0 0 0 0 0 0 0 127 0" result="hardAlpha"/>
<feOffset dy="-0.32"/>
<feGaussianBlur stdDeviation="2"/>
<feComposite in2="hardAlpha" operator="out"/>
<feColorMatrix type="matrix" values="0 0 0 0 0.278431 0 0 0 0 0.619608 0 0 0 0 0.129412 0 0 0 1 0"/>
<feBlend mode="normal" in2="BackgroundImageFix" result="effect1_dropShadow"/>
<feBlend mode="normal" in="SourceGraphic" in2="effect1_dropShadow" result="shape"/>
</filter>
<filter id="filter15_d" x="9" y="24.68" width="9" height="9" filterUnits="userSpaceOnUse" color-interpolation-filters="sRGB">
<feFlood flood-opacity="0" result="BackgroundImageFix"/>
<feColorMatrix in="SourceAlpha" type="matrix" values="0 0 0 0 0 0 0 0 0 0 0 0 0 0 0 0 0 0 127 0" result="hardAlpha"/>
<feOffset dy="-0.32"/>
<feGaussianBlur stdDeviation="2"/>
<feComposite in2="hardAlpha" operator="out"/>
<feColorMatrix type="matrix" values="0 0 0 0 0.278431 0 0 0 0 0.619608 0 0 0 0 0.129412 0 0 0 1 0"/>
<feBlend mode="normal" in2="BackgroundImageFix" result="effect1_dropShadow"/>
<feBlend mode="normal" in="SourceGraphic" in2="effect1_dropShadow" result="shape"/>
</filter>
<filter id="filter16_d" x="10" y="26.68" width="9" height="9" filterUnits="userSpaceOnUse" color-interpolation-filters="sRGB">
<feFlood flood-opacity="0" result="BackgroundImageFix"/>
<feColorMatrix in="SourceAlpha" type="matrix" values="0 0 0 0 0 0 0 0 0 0 0 0 0 0 0 0 0 0 127 0" result="hardAlpha"/>
<feOffset dy="-0.32"/>
<feGaussianBlur stdDeviation="2"/>
<feComposite in2="hardAlpha" operator="out"/>
<feColorMatrix type="matrix" values="0 0 0 0 0.278431 0 0 0 0 0.619608 0 0 0 0 0.129412 0 0 0 1 0"/>
<feBlend mode="normal" in2="BackgroundImageFix" result="effect1_dropShadow"/>
<feBlend mode="normal" in="SourceGraphic" in2="effect1_dropShadow" result="shape"/>
</filter>
<filter id="filter17_d" x="0" y="0" width="34" height="40" filterUnits="userSpaceOnUse" color-interpolation-filters="sRGB">
<feFlood flood-opacity="0" result="BackgroundImageFix"/>
<feColorMatrix in="SourceAlpha" type="matrix" values="0 0 0 0 0 0 0 0 0 0 0 0 0 0 0 0 0 0 127 0" result="hardAlpha"/>
<feOffset dy="4"/>
<feGaussianBlur stdDeviation="2"/>
<feComposite in2="hardAlpha" operator="out"/>
<feColorMatrix type="matrix" values="0 0 0 0 0 0 0 0 0 0 0 0 0 0 0 0 0 0 0.25 0"/>
<feBlend mode="normal" in2="BackgroundImageFix" result="effect1_dropShadow"/>
<feBlend mode="normal" in="SourceGraphic" in2="effect1_dropShadow" result="shape"/>
</filter>
<linearGradient id="paint0_linear" x1="26.5" y1="27" x2="26.5" y2="28" gradientUnits="userSpaceOnUse">
<stop stop-color="#D6D6D6"/>
<stop offset="1" stop-color="#A8A8A8"/>
</linearGradient>
<linearGradient id="paint1_linear" x1="27.5" y1="27" x2="27.5" y2="28" gradientUnits="userSpaceOnUse">
<stop stop-color="#D6D6D6"/>
<stop offset="1" stop-color="#A8A8A8"/>
</linearGradient>
<linearGradient id="paint2_linear" x1="27.5" y1="28" x2="27.5" y2="29" gradientUnits="userSpaceOnUse">
<stop stop-color="#D6D6D6"/>
<stop offset="1" stop-color="#A8A8A8"/>
</linearGradient>
<linearGradient id="paint3_linear" x1="26.5" y1="28" x2="26.5" y2="29" gradientUnits="userSpaceOnUse">
<stop stop-color="#D6D6D6"/>
<stop offset="1" stop-color="#A8A8A8"/>
</linearGradient>
<linearGradient id="paint4_linear" x1="25.5" y1="28" x2="25.5" y2="29" gradientUnits="userSpaceOnUse">
<stop stop-color="#D6D6D6"/>
<stop offset="1" stop-color="#A8A8A8"/>
</linearGradient>
<linearGradient id="paint5_linear" x1="24.5" y1="29" x2="24.5" y2="30" gradientUnits="userSpaceOnUse">
<stop stop-color="#D6D6D6"/>
<stop offset="1" stop-color="#A8A8A8"/>
</linearGradient>
<linearGradient id="paint6_linear" x1="25.5" y1="29" x2="25.5" y2="30" gradientUnits="userSpaceOnUse">
<stop stop-color="#D6D6D6"/>
<stop offset="1" stop-color="#A8A8A8"/>
</linearGradient>
<linearGradient id="paint7_linear" x1="26.5" y1="29" x2="26.5" y2="30" gradientUnits="userSpaceOnUse">
<stop stop-color="#D6D6D6"/>
<stop offset="1" stop-color="#A8A8A8"/>
</linearGradient>
<linearGradient id="paint8_linear" x1="27.5" y1="29" x2="27.5" y2="30" gradientUnits="userSpaceOnUse">
<stop stop-color="#D6D6D6"/>
<stop offset="1" stop-color="#A8A8A8"/>
</linearGradient>
<linearGradient id="paint9_linear" x1="17.5" y1="31" x2="17.5" y2="32" gradientUnits="userSpaceOnUse">
<stop stop-color="#3C9A14"/>
<stop offset="1" stop-color="#3C9A14" stop-opacity="0.6"/>
</linearGradient>
<linearGradient id="paint10_linear" x1="18.5" y1="31" x2="18.5" y2="32" gradientUnits="userSpaceOnUse">
<stop stop-color="#3C9A14"/>
<stop offset="1" stop-color="#3C9A14" stop-opacity="0.6"/>
</linearGradient>
<linearGradient id="paint11_linear" x1="18.5" y1="30" x2="18.5" y2="31" gradientUnits="userSpaceOnUse">
<stop stop-color="#3C9A14"/>
<stop offset="1" stop-color="#3C9A14" stop-opacity="0.6"/>
</linearGradient>
<linearGradient id="paint12_linear" x1="17.5" y1="30" x2="17.5" y2="31" gradientUnits="userSpaceOnUse">
<stop stop-color="#3C9A14"/>
<stop offset="1" stop-color="#3C9A14" stop-opacity="0.6"/>
</linearGradient>
<linearGradient id="paint13_linear" x1="18.5" y1="29" x2="18.5" y2="30" gradientUnits="userSpaceOnUse">
<stop stop-color="#3C9A14"/>
<stop offset="1" stop-color="#3C9A14" stop-opacity="0.6"/>
</linearGradient>
<linearGradient id="paint14_linear" x1="28.5" y1="30" x2="28.5" y2="31" gradientUnits="userSpaceOnUse">
<stop stop-color="#3C9A14"/>
<stop offset="1" stop-color="#3C9A14" stop-opacity="0.6"/>
</linearGradient>
<linearGradient id="paint15_linear" x1="29.5" y1="30" x2="29.5" y2="31" gradientUnits="userSpaceOnUse">
<stop stop-color="#3C9A14"/>
<stop offset="1" stop-color="#3C9A14" stop-opacity="0.6"/>
</linearGradient>
<linearGradient id="paint16_linear" x1="27.5" y1="30" x2="27.5" y2="31" gradientUnits="userSpaceOnUse">
<stop stop-color="#3C9A14"/>
<stop offset="1" stop-color="#3C9A14" stop-opacity="0.6"/>
</linearGradient>
<linearGradient id="paint17_linear" x1="26.5" y1="31" x2="26.5" y2="32" gradientUnits="userSpaceOnUse">
<stop stop-color="#3C9A14"/>
<stop offset="1" stop-color="#3C9A14" stop-opacity="0.6"/>
</linearGradient>
<linearGradient id="paint18_linear" x1="27.5" y1="31" x2="27.5" y2="32" gradientUnits="userSpaceOnUse">
<stop stop-color="#3C9A14"/>
<stop offset="1" stop-color="#3C9A14" stop-opacity="0.6"/>
</linearGradient>
<linearGradient id="paint19_linear" x1="28.5" y1="31" x2="28.5" y2="32" gradientUnits="userSpaceOnUse">
<stop stop-color="#3C9A14"/>
<stop offset="1" stop-color="#3C9A14" stop-opacity="0.6"/>
</linearGradient>
<linearGradient id="paint20_linear" x1="15.5" y1="31" x2="15.5" y2="32" gradientUnits="userSpaceOnUse">
<stop stop-color="#3C9A14"/>
<stop offset="1" stop-color="#3C9A14" stop-opacity="0.6"/>
</linearGradient>
<linearGradient id="paint21_linear" x1="14.5" y1="30" x2="14.5" y2="31" gradientUnits="userSpaceOnUse">
<stop stop-color="#3C9A14"/>
<stop offset="1" stop-color="#3C9A14" stop-opacity="0.6"/>
</linearGradient>
<linearGradient id="paint22_linear" x1="13.5" y1="30" x2="13.5" y2="31" gradientUnits="userSpaceOnUse">
<stop stop-color="#3C9A14"/>
<stop offset="1" stop-color="#3C9A14" stop-opacity="0.6"/>
</linearGradient>
<linearGradient id="paint23_linear" x1="13.5" y1="29" x2="13.5" y2="30" gradientUnits="userSpaceOnUse">
<stop stop-color="#3C9A14"/>
<stop offset="1" stop-color="#3C9A14" stop-opacity="0.6"/>
</linearGradient>
<linearGradient id="paint24_linear" x1="14.5" y1="31" x2="14.5" y2="32" gradientUnits="userSpaceOnUse">
<stop stop-color="#3C9A14"/>
<stop offset="1" stop-color="#3C9A14" stop-opacity="0.6"/>
</linearGradient>
<linearGradient id="paint25_linear" x1="12.5" y1="18" x2="12.5" y2="19" gradientUnits="userSpaceOnUse">
<stop stop-color="#D5D7D4"/>
<stop offset="1" stop-color="#2B2B2B" stop-opacity="0.6"/>
</linearGradient>
</defs>
</svg>
